<?xml version="1.0" encoding="UTF-8"?>
<svg xmlns="http://www.w3.org/2000/svg" version="1.1" width="300" height="300" viewBox="0 0 300 300"><rect x="0" y="0" width="300" height="300" fill="#ffffff"/><g transform="scale(9.091)"><g transform="translate(2,2)"><path fill-rule="evenodd" d="M9 0L9 1L8 1L8 2L9 2L9 3L8 3L8 4L10 4L10 7L11 7L11 4L12 4L12 5L13 5L13 4L12 4L12 2L14 2L14 4L16 4L16 5L15 5L15 6L14 6L14 9L16 9L16 10L14 10L14 12L13 12L13 13L12 13L12 11L13 11L13 10L11 10L11 11L10 11L10 9L11 9L11 8L6 8L6 9L8 9L8 11L9 11L9 12L8 12L8 14L6 14L6 13L7 13L7 12L6 12L6 11L7 11L7 10L5 10L5 8L0 8L0 9L1 9L1 10L0 10L0 13L2 13L2 14L1 14L1 15L0 15L0 16L1 16L1 15L2 15L2 17L0 17L0 21L1 21L1 18L2 18L2 20L3 20L3 21L4 21L4 20L5 20L5 21L7 21L7 20L9 20L9 18L10 18L10 19L11 19L11 20L10 20L10 21L8 21L8 23L11 23L11 22L10 22L10 21L12 21L12 22L13 22L13 21L14 21L14 22L15 22L15 23L18 23L18 24L17 24L17 25L16 25L16 24L15 24L15 25L14 25L14 24L13 24L13 23L12 23L12 25L14 25L14 28L15 28L15 27L16 27L16 28L17 28L17 29L19 29L19 28L22 28L22 27L23 27L23 26L24 26L24 27L26 27L26 26L24 26L24 25L27 25L27 28L24 28L24 29L27 29L27 28L28 28L28 26L29 26L29 23L28 23L28 24L25 24L25 23L27 23L27 22L29 22L29 20L28 20L28 19L27 19L27 16L28 16L28 15L27 15L27 12L28 12L28 11L27 11L27 12L25 12L25 9L26 9L26 8L25 8L25 9L24 9L24 8L23 8L23 9L22 9L22 8L20 8L20 9L18 9L18 8L17 8L17 6L18 6L18 7L19 7L19 6L18 6L18 5L20 5L20 3L21 3L21 0L18 0L18 1L14 1L14 0L13 0L13 1L11 1L11 2L10 2L10 0ZM19 1L19 2L20 2L20 1ZM17 2L17 3L16 3L16 4L17 4L17 3L18 3L18 4L19 4L19 3L18 3L18 2ZM10 3L10 4L11 4L11 3ZM8 5L8 7L9 7L9 5ZM16 5L16 6L15 6L15 7L16 7L16 6L17 6L17 5ZM12 6L12 9L13 9L13 6ZM20 6L20 7L21 7L21 6ZM27 8L27 9L28 9L28 10L29 10L29 9L28 9L28 8ZM2 9L2 13L3 13L3 15L5 15L5 16L4 16L4 18L5 18L5 17L6 17L6 18L7 18L7 19L5 19L5 20L7 20L7 19L8 19L8 18L9 18L9 16L10 16L10 18L13 18L13 19L12 19L12 21L13 21L13 20L14 20L14 21L15 21L15 22L16 22L16 21L15 21L15 20L18 20L18 21L19 21L19 20L21 20L21 19L22 19L22 18L21 18L21 17L20 17L20 16L21 16L21 14L22 14L22 17L23 17L23 18L24 18L24 19L25 19L25 21L26 21L26 20L27 20L27 19L25 19L25 18L24 18L24 17L26 17L26 16L27 16L27 15L26 15L26 13L25 13L25 12L24 12L24 9L23 9L23 12L22 12L22 13L20 13L20 12L21 12L21 11L22 11L22 10L21 10L21 9L20 9L20 10L18 10L18 11L16 11L16 13L15 13L15 12L14 12L14 15L13 15L13 14L12 14L12 13L11 13L11 12L10 12L10 13L9 13L9 14L10 14L10 13L11 13L11 16L10 16L10 15L9 15L9 16L7 16L7 15L5 15L5 13L6 13L6 12L5 12L5 10L3 10L3 9ZM3 11L3 13L4 13L4 11ZM17 12L17 13L16 13L16 14L15 14L15 15L14 15L14 16L13 16L13 15L12 15L12 17L14 17L14 18L15 18L15 19L14 19L14 20L15 20L15 19L16 19L16 18L18 18L18 19L19 19L19 18L20 18L20 17L18 17L18 16L17 16L17 15L19 15L19 14L20 14L20 13L18 13L18 12ZM23 12L23 13L22 13L22 14L23 14L23 13L24 13L24 14L25 14L25 13L24 13L24 12ZM28 13L28 14L29 14L29 13ZM23 15L23 16L24 16L24 15ZM6 16L6 17L7 17L7 18L8 18L8 17L7 17L7 16ZM14 16L14 17L15 17L15 18L16 18L16 17L17 17L17 16L16 16L16 17L15 17L15 16ZM28 17L28 18L29 18L29 17ZM21 21L21 24L24 24L24 21ZM18 22L18 23L19 23L19 24L18 24L18 25L17 25L17 26L18 26L18 27L17 27L17 28L19 28L19 27L20 27L20 23L19 23L19 22ZM22 22L22 23L23 23L23 22ZM8 24L8 29L10 29L10 28L9 28L9 27L10 27L10 26L9 26L9 24ZM15 25L15 26L16 26L16 25ZM18 25L18 26L19 26L19 25ZM22 25L22 26L21 26L21 27L22 27L22 26L23 26L23 25ZM11 26L11 29L13 29L13 28L12 28L12 27L13 27L13 26ZM0 0L0 7L7 7L7 0ZM1 1L1 6L6 6L6 1ZM2 2L2 5L5 5L5 2ZM22 0L22 7L29 7L29 0ZM23 1L23 6L28 6L28 1ZM24 2L24 5L27 5L27 2ZM0 22L0 29L7 29L7 22ZM1 23L1 28L6 28L6 23ZM2 24L2 27L5 27L5 24Z" fill="#000000"/></g></g></svg>
